<mxfile host="app.diagrams.net" agent="Mozilla/5.0 (Windows NT 10.0; Win64; x64; rv:138.0) Gecko/20100101 Firefox/138.0" version="27.0.9">
  <diagram name="Seite-1" id="B4qSR5klLsiQidIwLUBa">
    <mxGraphModel dx="1375" dy="759" grid="1" gridSize="10" guides="1" tooltips="1" connect="1" arrows="1" fold="1" page="1" pageScale="1" pageWidth="2336" pageHeight="1654" math="0" shadow="0">
      <root>
        <mxCell id="0" />
        <mxCell id="1" parent="0" />
        <mxCell id="4Ud3EdYBzJutEI8MvPuo-1" value="Objekt" style="rounded=0;whiteSpace=wrap;html=1;" vertex="1" parent="1">
          <mxGeometry x="340" y="180" width="120" height="60" as="geometry" />
        </mxCell>
        <mxCell id="4Ud3EdYBzJutEI8MvPuo-9" style="rounded=0;orthogonalLoop=1;jettySize=auto;html=1;exitX=0;exitY=0.5;exitDx=0;exitDy=0;entryX=1;entryY=0.25;entryDx=0;entryDy=0;endArrow=none;startFill=0;" edge="1" parent="1" source="4Ud3EdYBzJutEI8MvPuo-2" target="4Ud3EdYBzJutEI8MvPuo-1">
          <mxGeometry relative="1" as="geometry" />
        </mxCell>
        <mxCell id="4Ud3EdYBzJutEI8MvPuo-2" value="ObjektKategorien" style="ellipse;whiteSpace=wrap;html=1;" vertex="1" parent="1">
          <mxGeometry x="540" y="160" width="120" height="80" as="geometry" />
        </mxCell>
        <mxCell id="4Ud3EdYBzJutEI8MvPuo-3" value="Model" style="ellipse;whiteSpace=wrap;html=1;" vertex="1" parent="1">
          <mxGeometry x="540" y="270" width="120" height="80" as="geometry" />
        </mxCell>
        <mxCell id="4Ud3EdYBzJutEI8MvPuo-4" value="Zweck" style="ellipse;whiteSpace=wrap;html=1;" vertex="1" parent="1">
          <mxGeometry x="540" y="370" width="120" height="80" as="geometry" />
        </mxCell>
        <mxCell id="4Ud3EdYBzJutEI8MvPuo-6" style="rounded=0;orthogonalLoop=1;jettySize=auto;html=1;exitX=0;exitY=0.5;exitDx=0;exitDy=0;entryX=1;entryY=0.5;entryDx=0;entryDy=0;endArrow=none;startFill=0;" edge="1" parent="1" source="4Ud3EdYBzJutEI8MvPuo-5" target="4Ud3EdYBzJutEI8MvPuo-1">
          <mxGeometry relative="1" as="geometry" />
        </mxCell>
        <mxCell id="4Ud3EdYBzJutEI8MvPuo-5" value="Styl" style="ellipse;whiteSpace=wrap;html=1;" vertex="1" parent="1">
          <mxGeometry x="550" y="480" width="120" height="80" as="geometry" />
        </mxCell>
        <mxCell id="4Ud3EdYBzJutEI8MvPuo-7" style="rounded=0;orthogonalLoop=1;jettySize=auto;html=1;exitX=0;exitY=0.5;exitDx=0;exitDy=0;entryX=1.033;entryY=0.633;entryDx=0;entryDy=0;entryPerimeter=0;endArrow=none;startFill=0;" edge="1" parent="1" source="4Ud3EdYBzJutEI8MvPuo-4" target="4Ud3EdYBzJutEI8MvPuo-1">
          <mxGeometry relative="1" as="geometry" />
        </mxCell>
        <mxCell id="4Ud3EdYBzJutEI8MvPuo-8" style="rounded=0;orthogonalLoop=1;jettySize=auto;html=1;exitX=0;exitY=0.5;exitDx=0;exitDy=0;entryX=1.017;entryY=0.4;entryDx=0;entryDy=0;entryPerimeter=0;endArrow=none;startFill=0;" edge="1" parent="1" source="4Ud3EdYBzJutEI8MvPuo-3" target="4Ud3EdYBzJutEI8MvPuo-1">
          <mxGeometry relative="1" as="geometry" />
        </mxCell>
      </root>
    </mxGraphModel>
  </diagram>
</mxfile>
